<svg width="767" height="485" viewBox="0 0 767 485" fill="none" xmlns="http://www.w3.org/2000/svg">
<path d="M58.4121 253.045H29.9933C28.994 253.045 28.0357 253.442 27.3291 254.149C26.6225 254.855 26.2255 255.813 26.2255 256.813V269.287C26.2255 270.286 26.6225 271.244 27.3291 271.951C28.0357 272.657 28.994 273.054 29.9933 273.054H34.7027V291.745H53.7027V273.054H58.4121C59.4114 273.054 60.3697 272.657 61.0763 271.951C61.7829 271.244 62.1799 270.286 62.1799 269.287V256.813C62.1799 255.813 61.7829 254.855 61.0763 254.149C60.3697 253.442 59.4114 253.045 58.4121 253.045Z" fill="#6C63FF"/>
<path d="M86.8766 367.206C69.4721 341.738 60.5745 311.415 61.4586 280.581C61.4744 279.87 61.2435 279.175 60.8051 278.614C60.3666 278.054 59.7477 277.662 59.0534 277.506V272.117H29.0393V277.432H28.6258C28.2024 277.432 27.7838 277.52 27.3959 277.689C27.0081 277.859 26.6593 278.107 26.3715 278.417C26.0837 278.728 25.8629 279.094 25.7231 279.494C25.5832 279.893 25.5272 280.317 25.5585 280.739C27.9231 313.701 19.9386 343.26 1.60495 369.416C0.549945 370.92 0.0109603 372.724 0.0688929 374.56L3.35077 476.078C3.42965 478.342 4.38001 480.489 6.00349 482.069C7.62698 483.65 9.79813 484.542 12.0638 484.56H79.9511C82.2426 484.541 84.4363 483.629 86.0647 482.016C87.6932 480.404 88.6278 478.22 88.6693 475.928L89.9341 377.363C89.9715 373.745 88.9049 370.202 86.8766 367.206Z" fill="#3F3D56"/>
<path opacity="0.2" d="M52.4878 257.109C52.4878 259.265 51.6314 261.333 50.107 262.857C48.5825 264.382 46.5149 265.238 44.359 265.238C42.2031 265.238 40.1355 264.382 38.6111 262.857C37.0866 261.333 36.2302 259.265 36.2302 257.109" fill="black"/>
<path d="M76.1299 400.927H67.9093C67.1244 395.834 64.5429 391.191 60.6317 387.836C56.7204 384.481 51.7377 382.637 46.5849 382.637C41.432 382.637 36.4493 384.481 32.5381 387.836C28.6268 391.191 26.0453 395.834 25.2605 400.927H17.0393C16.1646 400.927 15.3003 401.116 14.5055 401.481C13.7108 401.847 13.0044 402.38 12.4349 403.043C11.8653 403.707 11.4461 404.486 11.2059 405.328C10.9657 406.169 10.9101 407.052 11.0431 407.916L19.9726 465.957H71.2466L82.0927 408.112C82.257 407.235 82.2262 406.334 82.0024 405.471C81.7787 404.608 81.3676 403.805 80.7983 403.119C80.229 402.433 79.5156 401.881 78.7087 401.502C77.9018 401.123 77.0213 400.927 76.1299 400.927Z" fill="#6C63FF"/>
<path d="M766.952 307.634L764.98 386.448L762.538 484.181H679.414L676.552 369.675L675 307.634H766.952Z" fill="#E6E6E6"/>
<path d="M726.493 265.704H714.723V421.654H726.493V265.704Z" fill="#6C63FF"/>
<path d="M761.067 367.02L758.841 479.04H683.074L680.466 347.796C687.292 345.879 694.44 345.388 701.464 346.354C708.488 347.32 715.238 349.723 721.293 353.412C733.952 360.899 748.173 364.929 761.067 367.02Z" fill="#3F3D56"/>
<path d="M701.831 379.63H691.031V390.43H701.831V379.63Z" fill="#E6E6E6"/>
<path d="M709.187 357.562H698.387V368.362H709.187V357.562Z" fill="#E6E6E6"/>
<path d="M732.378 372.84L723.703 366.406L717.27 375.081L725.944 381.514L732.378 372.84Z" fill="#E6E6E6"/>
<path d="M718.788 403.009L710.114 396.576L703.68 405.251L712.355 411.684L718.788 403.009Z" fill="#E6E6E6"/>
<path d="M699.275 338.53C700.494 338.53 701.482 337.542 701.482 336.323C701.482 335.104 700.494 334.116 699.275 334.116C698.057 334.116 697.068 335.104 697.068 336.323C697.068 337.542 698.057 338.53 699.275 338.53Z" fill="#3F3D56"/>
<path d="M383.508 483.508C517.025 483.508 625.262 375.271 625.262 241.754C625.262 108.237 517.025 0 383.508 0C249.991 0 141.754 108.237 141.754 241.754C141.754 375.271 249.991 483.508 383.508 483.508Z" fill="#6C63FF"/>
<path opacity="0.2" d="M383.508 418.211C342.684 418.211 303.123 404.055 271.566 378.157C240.009 352.258 218.408 316.219 210.444 276.179C202.48 236.14 208.645 194.577 227.889 158.574C247.134 122.57 278.267 94.3535 315.983 78.7309C353.7 63.1084 395.666 61.0468 434.732 72.8975C473.798 84.7482 507.547 109.778 530.227 143.722C552.908 177.666 563.117 218.424 559.115 259.051C555.114 299.678 537.149 337.661 508.282 366.528C491.935 382.965 472.49 395.996 451.072 404.868C429.655 413.739 406.69 418.274 383.508 418.211ZM383.508 76.1797C292.21 76.1797 217.934 150.456 217.934 241.754C217.934 333.052 292.21 407.328 383.508 407.328C474.806 407.328 549.082 333.052 549.082 241.754C549.082 150.456 474.806 76.1797 383.508 76.1797Z" fill="black"/>
<path d="M383.508 412.77C477.957 412.77 554.524 336.203 554.524 241.754C554.524 147.305 477.957 70.7383 383.508 70.7383C289.059 70.7383 212.492 147.305 212.492 241.754C212.492 336.203 289.059 412.77 383.508 412.77Z" fill="#3F3D56"/>
<path d="M256.327 173.372C255.03 170.832 254.247 168.061 254.022 165.218C253.796 162.374 254.133 159.515 255.014 156.802C255.894 154.089 257.301 151.576 259.153 149.408C261.005 147.239 263.267 145.456 265.809 144.162C268.35 142.868 271.122 142.087 273.965 141.865C276.809 141.642 279.668 141.982 282.38 142.866C285.092 143.749 287.603 145.158 289.77 147.013C291.937 148.867 293.717 151.131 295.009 153.674L343.325 248.552C344.622 251.092 345.405 253.863 345.631 256.706C345.856 259.55 345.519 262.409 344.638 265.122C343.758 267.835 342.351 270.348 340.499 272.517C338.647 274.685 336.385 276.468 333.844 277.762C331.302 279.056 328.531 279.837 325.687 280.059C322.844 280.282 319.984 279.942 317.272 279.058C314.56 278.175 312.049 276.766 309.882 274.911C307.715 273.057 305.935 270.793 304.644 268.25L256.327 173.372Z" fill="#FF6584"/>
<path opacity="0.2" d="M303.343 265.696L301.113 261.317C312.242 252.67 325.311 246.31 339.794 241.619L342.024 245.998C326.349 249.262 313.013 255.303 303.343 265.696Z" fill="black"/>
<path d="M220.079 208.891C218.782 206.351 217.999 203.58 217.774 200.737C217.549 197.894 217.886 195.034 218.767 192.322C219.648 189.609 221.054 187.097 222.906 184.928C224.758 182.759 227.02 180.977 229.561 179.683C232.103 178.389 234.874 177.608 237.717 177.386C240.561 177.163 243.42 177.503 246.132 178.386C248.843 179.27 251.354 180.679 253.521 182.533C255.688 184.387 257.468 186.65 258.76 189.193L307.077 284.071C309.681 289.2 310.144 295.153 308.362 300.622C306.581 306.092 302.701 310.63 297.575 313.24C292.449 315.851 286.496 316.319 281.025 314.544C275.554 312.768 271.011 308.892 268.395 303.769L220.079 208.891Z" fill="#FF6584"/>
<path opacity="0.2" d="M246.281 260.344L244.051 255.965C255.181 247.318 268.249 240.958 282.733 236.267L284.963 240.646C269.287 243.91 255.951 249.951 246.281 260.344Z" fill="black"/>
<path opacity="0.2" d="M256.688 280.78L254.458 276.401C265.587 267.753 278.656 261.394 293.139 256.702L295.369 261.081C279.694 264.346 266.358 270.387 256.688 280.78Z" fill="black"/>
<path opacity="0.2" d="M267.095 301.215L264.865 296.836C275.994 288.189 289.062 281.829 303.546 277.138L305.776 281.517C290.1 284.781 276.764 290.822 267.095 301.215Z" fill="black"/>
<path d="M497.778 247.195L497.93 247.196C503.134 247.239 508.231 245.713 512.555 242.817C516.879 239.921 520.229 235.789 522.169 230.959C526.16 220.873 528.171 210.112 528.093 199.265C527.821 153.355 490.47 115.69 444.563 115.055C425.012 114.782 405.968 121.277 390.659 133.44C375.35 145.604 364.719 162.687 360.566 181.794C356.414 200.9 358.996 220.855 367.876 238.276C376.755 255.696 391.385 269.51 409.286 277.375C414.017 279.47 419.27 280.086 424.357 279.143C429.444 278.199 434.127 275.741 437.792 272.09C445.653 264.187 455.001 257.919 465.296 253.646C475.592 249.374 486.631 247.181 497.778 247.195Z" fill="#E6E6E6"/>
<path d="M410.902 251.269C412.723 251.269 414.199 249.793 414.199 247.973C414.199 246.152 412.723 244.676 410.902 244.676C409.082 244.676 407.606 246.152 407.606 247.973C407.606 249.793 409.082 251.269 410.902 251.269Z" fill="#3F3D56"/>
<path d="M287.305 287.027C289.125 287.027 290.601 285.551 290.601 283.731C290.601 281.91 289.125 280.434 287.305 280.434C285.484 280.434 284.008 281.91 284.008 283.731C284.008 285.551 285.484 287.027 287.305 287.027Z" fill="#3F3D56"/>
<path d="M438.699 302.387C445.569 302.387 451.137 296.818 451.137 289.949C451.137 283.08 445.569 277.512 438.699 277.512C431.83 277.512 426.262 283.08 426.262 289.949C426.262 296.818 431.83 302.387 438.699 302.387Z" fill="#FF6584"/>
<path opacity="0.2" d="M448.028 290.727C448.028 293.201 447.045 295.573 445.295 297.323C443.546 299.072 441.173 300.055 438.7 300.055C436.226 300.055 433.853 299.072 432.104 297.323C430.354 295.573 429.371 293.201 429.371 290.727" fill="black"/>
<path opacity="0.2" d="M429.371 289.172C429.371 286.698 430.354 284.325 432.104 282.576C433.853 280.827 436.226 279.844 438.7 279.844C441.173 279.844 443.546 280.827 445.295 282.576C447.045 284.325 448.028 286.698 448.028 289.172" fill="black"/>
<path d="M434.035 286.84C434.465 286.84 434.813 286.318 434.813 285.674C434.813 285.03 434.465 284.508 434.035 284.508C433.606 284.508 433.258 285.03 433.258 285.674C433.258 286.318 433.606 286.84 434.035 286.84Z" fill="#FF6584"/>
<path d="M438.7 285.285C439.129 285.285 439.477 284.763 439.477 284.119C439.477 283.475 439.129 282.953 438.7 282.953C438.27 282.953 437.922 283.475 437.922 284.119C437.922 284.763 438.27 285.285 438.7 285.285Z" fill="#FF6584"/>
<path d="M438.7 295.391C439.129 295.391 439.477 294.869 439.477 294.225C439.477 293.581 439.129 293.059 438.7 293.059C438.27 293.059 437.922 293.581 437.922 294.225C437.922 294.869 438.27 295.391 438.7 295.391Z" fill="#FF6584"/>
<path d="M443.364 289.172C443.793 289.172 444.141 288.65 444.141 288.006C444.141 287.362 443.793 286.84 443.364 286.84C442.934 286.84 442.586 287.362 442.586 288.006C442.586 288.65 442.934 289.172 443.364 289.172Z" fill="#FF6584"/>
<path d="M442.586 297.723C443.016 297.723 443.364 297.201 443.364 296.557C443.364 295.913 443.016 295.391 442.586 295.391C442.157 295.391 441.809 295.913 441.809 296.557C441.809 297.201 442.157 297.723 442.586 297.723Z" fill="#FF6584"/>
<path d="M433.258 293.836C433.687 293.836 434.035 293.314 434.035 292.67C434.035 292.026 433.687 291.504 433.258 291.504C432.829 291.504 432.481 292.026 432.481 292.67C432.481 293.314 432.829 293.836 433.258 293.836Z" fill="#FF6584"/>
<path d="M463.575 268.961C470.444 268.961 476.012 263.393 476.012 256.524C476.012 249.655 470.444 244.086 463.575 244.086C456.705 244.086 451.137 249.655 451.137 256.524C451.137 263.393 456.705 268.961 463.575 268.961Z" fill="#FF6584"/>
<path opacity="0.2" d="M472.903 257.301C472.903 259.775 471.92 262.148 470.171 263.897C468.421 265.646 466.048 266.629 463.575 266.629C461.101 266.629 458.728 265.646 456.979 263.897C455.229 262.148 454.246 259.775 454.246 257.301" fill="black"/>
<path opacity="0.2" d="M454.246 255.746C454.246 253.272 455.229 250.9 456.979 249.15C458.728 247.401 461.101 246.418 463.575 246.418C466.048 246.418 468.421 247.401 470.171 249.15C471.92 250.9 472.903 253.272 472.903 255.746" fill="black"/>
<path d="M458.91 253.414C459.34 253.414 459.688 252.892 459.688 252.248C459.688 251.604 459.34 251.082 458.91 251.082C458.481 251.082 458.133 251.604 458.133 252.248C458.133 252.892 458.481 253.414 458.91 253.414Z" fill="#FF6584"/>
<path d="M463.575 251.859C464.004 251.859 464.352 251.337 464.352 250.693C464.352 250.05 464.004 249.527 463.575 249.527C463.145 249.527 462.797 250.05 462.797 250.693C462.797 251.337 463.145 251.859 463.575 251.859Z" fill="#FF6584"/>
<path d="M463.575 261.965C464.004 261.965 464.352 261.443 464.352 260.799C464.352 260.155 464.004 259.633 463.575 259.633C463.145 259.633 462.797 260.155 462.797 260.799C462.797 261.443 463.145 261.965 463.575 261.965Z" fill="#FF6584"/>
<path d="M468.239 255.746C468.668 255.746 469.016 255.224 469.016 254.58C469.016 253.936 468.668 253.414 468.239 253.414C467.809 253.414 467.461 253.936 467.461 254.58C467.461 255.224 467.809 255.746 468.239 255.746Z" fill="#FF6584"/>
<path d="M467.461 264.297C467.891 264.297 468.239 263.775 468.239 263.131C468.239 262.487 467.891 261.965 467.461 261.965C467.032 261.965 466.684 262.487 466.684 263.131C466.684 263.775 467.032 264.297 467.461 264.297Z" fill="#FF6584"/>
<path d="M458.133 260.41C458.562 260.41 458.91 259.888 458.91 259.244C458.91 258.6 458.562 258.078 458.133 258.078C457.704 258.078 457.356 258.6 457.356 259.244C457.356 259.888 457.704 260.41 458.133 260.41Z" fill="#FF6584"/>
<path d="M488.45 286.063C495.319 286.063 500.887 280.494 500.887 273.625C500.887 266.756 495.319 261.188 488.45 261.188C481.58 261.188 476.012 266.756 476.012 273.625C476.012 280.494 481.58 286.063 488.45 286.063Z" fill="#6C63FF"/>
<path opacity="0.2" d="M497.778 274.402C497.778 276.876 496.795 279.249 495.046 280.999C493.296 282.748 490.923 283.731 488.45 283.731C485.976 283.731 483.603 282.748 481.854 280.999C480.104 279.249 479.121 276.876 479.121 274.402" fill="black"/>
<path opacity="0.2" d="M479.121 272.848C479.121 270.374 480.104 268.001 481.854 266.252C483.603 264.502 485.976 263.52 488.45 263.52C490.923 263.52 493.296 264.502 495.046 266.252C496.795 268.001 497.778 270.374 497.778 272.848" fill="black"/>
<path d="M483.785 270.516C484.215 270.516 484.563 269.994 484.563 269.35C484.563 268.706 484.215 268.184 483.785 268.184C483.356 268.184 483.008 268.706 483.008 269.35C483.008 269.994 483.356 270.516 483.785 270.516Z" fill="#6C63FF"/>
<path d="M488.45 268.961C488.879 268.961 489.227 268.439 489.227 267.795C489.227 267.151 488.879 266.629 488.45 266.629C488.02 266.629 487.672 267.151 487.672 267.795C487.672 268.439 488.02 268.961 488.45 268.961Z" fill="#6C63FF"/>
<path d="M488.45 279.067C488.879 279.067 489.227 278.544 489.227 277.901C489.227 277.257 488.879 276.734 488.45 276.734C488.02 276.734 487.672 277.257 487.672 277.901C487.672 278.544 488.02 279.067 488.45 279.067Z" fill="#6C63FF"/>
<path d="M493.114 272.848C493.543 272.848 493.891 272.326 493.891 271.682C493.891 271.038 493.543 270.516 493.114 270.516C492.684 270.516 492.336 271.038 492.336 271.682C492.336 272.326 492.684 272.848 493.114 272.848Z" fill="#6C63FF"/>
<path d="M492.336 281.399C492.766 281.399 493.114 280.877 493.114 280.233C493.114 279.589 492.766 279.067 492.336 279.067C491.907 279.067 491.559 279.589 491.559 280.233C491.559 280.877 491.907 281.399 492.336 281.399Z" fill="#6C63FF"/>
<path d="M483.008 277.512C483.437 277.512 483.785 276.99 483.785 276.346C483.785 275.702 483.437 275.18 483.008 275.18C482.579 275.18 482.231 275.702 482.231 276.346C482.231 276.99 482.579 277.512 483.008 277.512Z" fill="#6C63FF"/>
<path d="M426.262 287.617C433.131 287.617 438.7 282.049 438.7 275.18C438.7 268.311 433.131 262.742 426.262 262.742C419.393 262.742 413.824 268.311 413.824 275.18C413.824 282.049 419.393 287.617 426.262 287.617Z" fill="#6C63FF"/>
<path opacity="0.2" d="M435.59 275.957C435.59 278.431 434.607 280.804 432.858 282.553C431.109 284.303 428.736 285.285 426.262 285.285C423.788 285.285 421.415 284.303 419.666 282.553C417.917 280.804 416.934 278.431 416.934 275.957" fill="black"/>
<path opacity="0.2" d="M416.934 274.402C416.934 271.929 417.917 269.556 419.666 267.807C421.415 266.057 423.788 265.074 426.262 265.074C428.736 265.074 431.109 266.057 432.858 267.807C434.607 269.556 435.59 271.929 435.59 274.402" fill="black"/>
<path d="M421.598 272.07C422.027 272.07 422.375 271.548 422.375 270.904C422.375 270.26 422.027 269.738 421.598 269.738C421.169 269.738 420.821 270.26 420.821 270.904C420.821 271.548 421.169 272.07 421.598 272.07Z" fill="#6C63FF"/>
<path d="M426.262 270.516C426.691 270.516 427.039 269.994 427.039 269.35C427.039 268.706 426.691 268.184 426.262 268.184C425.833 268.184 425.485 268.706 425.485 269.35C425.485 269.994 425.833 270.516 426.262 270.516Z" fill="#6C63FF"/>
<path d="M426.262 280.621C426.691 280.621 427.039 280.099 427.039 279.455C427.039 278.811 426.691 278.289 426.262 278.289C425.833 278.289 425.485 278.811 425.485 279.455C425.485 280.099 425.833 280.621 426.262 280.621Z" fill="#6C63FF"/>
<path d="M430.926 274.402C431.355 274.402 431.703 273.88 431.703 273.236C431.703 272.592 431.355 272.07 430.926 272.07C430.497 272.07 430.149 272.592 430.149 273.236C430.149 273.88 430.497 274.402 430.926 274.402Z" fill="#6C63FF"/>
<path d="M430.149 282.953C430.578 282.953 430.926 282.431 430.926 281.787C430.926 281.143 430.578 280.621 430.149 280.621C429.719 280.621 429.371 281.143 429.371 281.787C429.371 282.431 429.719 282.953 430.149 282.953Z" fill="#6C63FF"/>
<path d="M420.821 279.067C421.25 279.067 421.598 278.544 421.598 277.901C421.598 277.257 421.25 276.734 420.821 276.734C420.391 276.734 420.043 277.257 420.043 277.901C420.043 278.544 420.391 279.067 420.821 279.067Z" fill="#6C63FF"/>
<path d="M454.246 293.059C461.115 293.059 466.684 287.49 466.684 280.621C466.684 273.752 461.115 268.184 454.246 268.184C447.377 268.184 441.809 273.752 441.809 280.621C441.809 287.49 447.377 293.059 454.246 293.059Z" fill="#6C63FF"/>
<path opacity="0.2" d="M463.575 281.399C463.575 282.624 463.333 283.837 462.864 284.968C462.396 286.1 461.709 287.128 460.842 287.995C459.976 288.861 458.948 289.548 457.816 290.017C456.684 290.485 455.471 290.727 454.246 290.727C453.021 290.727 451.808 290.485 450.677 290.017C449.545 289.548 448.517 288.861 447.65 287.995C446.784 287.128 446.097 286.1 445.628 284.968C445.16 283.837 444.918 282.624 444.918 281.399" fill="black"/>
<path opacity="0.2" d="M444.918 279.844C444.918 278.619 445.16 277.406 445.628 276.274C446.097 275.142 446.784 274.114 447.65 273.248C448.517 272.382 449.545 271.695 450.677 271.226C451.808 270.757 453.021 270.516 454.246 270.516C455.471 270.516 456.684 270.757 457.816 271.226C458.948 271.695 459.976 272.382 460.842 273.248C461.709 274.114 462.396 275.142 462.864 276.274C463.333 277.406 463.575 278.619 463.575 279.844" fill="black"/>
<path d="M449.582 277.512C450.012 277.512 450.36 276.99 450.36 276.346C450.36 275.702 450.012 275.18 449.582 275.18C449.153 275.18 448.805 275.702 448.805 276.346C448.805 276.99 449.153 277.512 449.582 277.512Z" fill="#6C63FF"/>
<path d="M454.246 275.957C454.676 275.957 455.024 275.435 455.024 274.791C455.024 274.147 454.676 273.625 454.246 273.625C453.817 273.625 453.469 274.147 453.469 274.791C453.469 275.435 453.817 275.957 454.246 275.957Z" fill="#6C63FF"/>
<path d="M454.246 286.063C454.676 286.063 455.024 285.541 455.024 284.897C455.024 284.253 454.676 283.731 454.246 283.731C453.817 283.731 453.469 284.253 453.469 284.897C453.469 285.541 453.817 286.063 454.246 286.063Z" fill="#6C63FF"/>
<path d="M458.91 279.844C459.34 279.844 459.688 279.322 459.688 278.678C459.688 278.034 459.34 277.512 458.91 277.512C458.481 277.512 458.133 278.034 458.133 278.678C458.133 279.322 458.481 279.844 458.91 279.844Z" fill="#6C63FF"/>
<path d="M458.133 288.395C458.562 288.395 458.91 287.873 458.91 287.229C458.91 286.585 458.562 286.063 458.133 286.063C457.704 286.063 457.356 286.585 457.356 287.229C457.356 287.873 457.704 288.395 458.133 288.395Z" fill="#6C63FF"/>
<path d="M448.805 284.508C449.234 284.508 449.582 283.986 449.582 283.342C449.582 282.698 449.234 282.176 448.805 282.176C448.376 282.176 448.028 282.698 448.028 283.342C448.028 283.986 448.376 284.508 448.805 284.508Z" fill="#6C63FF"/>
<path d="M473.68 306.274C480.549 306.274 486.117 300.705 486.117 293.836C486.117 286.967 480.549 281.399 473.68 281.399C466.811 281.399 461.242 286.967 461.242 293.836C461.242 300.705 466.811 306.274 473.68 306.274Z" fill="#FF6584"/>
<path opacity="0.2" d="M483.008 294.613C483.008 297.087 482.025 299.46 480.276 301.209C478.527 302.959 476.154 303.942 473.68 303.942C471.206 303.942 468.833 302.959 467.084 301.209C465.335 299.46 464.352 297.087 464.352 294.613" fill="black"/>
<path opacity="0.2" d="M464.352 293.059C464.352 290.585 465.335 288.212 467.084 286.463C468.833 284.713 471.206 283.731 473.68 283.731C476.154 283.731 478.527 284.713 480.276 286.463C482.025 288.212 483.008 290.585 483.008 293.059" fill="black"/>
<path d="M469.016 290.727C469.445 290.727 469.793 290.205 469.793 289.561C469.793 288.917 469.445 288.395 469.016 288.395C468.587 288.395 468.239 288.917 468.239 289.561C468.239 290.205 468.587 290.727 469.016 290.727Z" fill="#FF6584"/>
<path d="M473.68 289.172C474.109 289.172 474.457 288.65 474.457 288.006C474.457 287.362 474.109 286.84 473.68 286.84C473.251 286.84 472.903 287.362 472.903 288.006C472.903 288.65 473.251 289.172 473.68 289.172Z" fill="#FF6584"/>
<path d="M473.68 299.277C474.109 299.277 474.457 298.755 474.457 298.111C474.457 297.468 474.109 296.945 473.68 296.945C473.251 296.945 472.903 297.468 472.903 298.111C472.903 298.755 473.251 299.277 473.68 299.277Z" fill="#FF6584"/>
<path d="M478.344 293.059C478.773 293.059 479.121 292.537 479.121 291.893C479.121 291.249 478.773 290.727 478.344 290.727C477.915 290.727 477.567 291.249 477.567 291.893C477.567 292.537 477.915 293.059 478.344 293.059Z" fill="#FF6584"/>
<path d="M477.567 301.61C477.996 301.61 478.344 301.087 478.344 300.444C478.344 299.8 477.996 299.277 477.567 299.277C477.137 299.277 476.789 299.8 476.789 300.444C476.789 301.087 477.137 301.61 477.567 301.61Z" fill="#FF6584"/>
<path d="M468.239 297.723C468.668 297.723 469.016 297.201 469.016 296.557C469.016 295.913 468.668 295.391 468.239 295.391C467.809 295.391 467.461 295.913 467.461 296.557C467.461 297.201 467.809 297.723 468.239 297.723Z" fill="#FF6584"/>
<path d="M313.734 249.715C315.555 249.715 317.031 248.239 317.031 246.418C317.031 244.597 315.555 243.121 313.734 243.121C311.914 243.121 310.438 244.597 310.438 246.418C310.438 248.239 311.914 249.715 313.734 249.715Z" fill="#3F3D56"/>
<path d="M403.345 366.08L324.17 344.123L327.203 332.857L406.378 354.815L403.345 366.08Z" fill="#F9A825"/>
<path d="M391.738 362.315C364.625 367.505 336.773 367.505 309.66 362.315V350.637C336.834 355.14 364.564 355.14 391.738 350.637V362.315Z" fill="#F9A825"/>
<path d="M400.176 327.28C373.063 332.47 345.211 332.47 318.098 327.28V315.602C345.272 320.105 373.002 320.105 400.176 315.602V327.28Z" fill="#F9A825"/>
<path d="M428.558 341.294C401.445 346.484 373.593 346.484 346.48 341.294V329.616C373.654 334.119 401.384 334.119 428.558 329.616V341.294Z" fill="#F9A825"/>
<path d="M435.462 354.529C408.349 359.72 380.497 359.72 353.384 354.529V342.851C380.558 347.355 408.288 347.355 435.462 342.851V354.529Z" fill="#F9A825"/>
<path d="M459.531 371.824L378.554 385.426L376.676 373.904L457.652 360.302L459.531 371.824Z" fill="#F9A825"/>
<path d="M447.435 373.321C424.984 389.504 399.682 401.306 372.855 408.106L368.05 397.494C394.642 390.048 419.836 378.298 442.63 362.71L447.435 373.321Z" fill="#F9A825"/>
<path d="M440.689 337.911C418.238 354.094 392.935 365.895 366.109 372.695L361.304 362.084C387.896 354.637 413.09 342.887 435.884 327.299L440.689 337.911Z" fill="#F9A825"/>
<path d="M472.243 338.616C449.793 354.799 424.49 366.601 397.663 373.401L392.859 362.789C419.451 355.343 444.644 343.593 467.439 328.005L472.243 338.616Z" fill="#F9A825"/>
<path d="M483.962 347.717C461.511 363.9 436.208 375.701 409.381 382.501L404.577 371.89C431.169 364.444 456.362 352.693 479.157 337.105L483.962 347.717Z" fill="#F9A825"/>
<path d="M385.84 324.93H381.953V328.817H385.84V324.93Z" fill="#00BF71"/>
<path d="M397.5 392.559H393.614V396.445H397.5V392.559Z" fill="#00BF71"/>
<path d="M335.313 324.93H331.426V328.817H335.313V324.93Z" fill="#00BF71"/>
<path d="M425.485 373.125H421.598V377.012H425.485V373.125Z" fill="#00BF71"/>
<path d="M427.817 350.582H423.93V354.469H427.817V350.582Z" fill="#00BF71"/>
<path d="M363.701 339.94L359.198 336.885L357.452 339.458L361.955 342.513L363.701 339.94Z" fill="#00BF71"/>
<path d="M409.564 348.491L405.061 345.436L403.315 348.009L407.818 351.064L409.564 348.491Z" fill="#00BF71"/>
<path d="M353.595 363.261L349.092 360.206L347.347 362.779L351.849 365.834L353.595 363.261Z" fill="#00BF71"/>
<path d="M382.101 363.035L385.156 358.532L382.583 356.786L379.528 361.289L382.101 363.035Z" fill="#00BF71"/>
<path d="M403.089 368.476L406.144 363.973L403.571 362.227L400.516 366.73L403.089 368.476Z" fill="#00BF71"/>
<path d="M459.063 349.819L462.118 345.316L459.545 343.57L456.49 348.073L459.063 349.819Z" fill="#00BF71"/>
</svg>
